<svg xmlns="http://www.w3.org/2000/svg" viewBox="0 0 1599.5 1590">
  <defs>
    <style>
      .a {
        fill: #141283;
      }

      .a, .aa, .ab, .ac, .ad, .b, .f, .i, .j, .l, .m, .n, .o, .p, .q, .r, .s, .t, .u, .v, .w, .x, .y, .z {
        stroke: #fc0;
      }

      .a, .aa, .ab, .ac, .ad, .b, .c, .d, .e, .f, .i, .j, .l, .m, .n, .o, .p, .q, .r, .s, .t, .u, .v, .w, .x, .y, .z {
        stroke-linecap: round;
        stroke-miterlimit: 10;
      }

      .a, .b, .c, .d, .e, .f {
        stroke-width: 2px;
      }

      .aa, .ab, .ac, .ad, .b, .d, .e, .f, .i, .j, .l, .m, .n, .o, .p, .q, .r, .s, .t, .u, .v, .w, .x, .y, .z {
        fill: none;
      }

      .b, .d {
        stroke-dasharray: 0 3.96;
      }

      .c {
        fill: #114498;
      }

      .c, .d, .e {
        stroke: #0096ab;
      }

      .e {
        stroke-dasharray: 0 3.96;
      }

      .g {
        font-size: 14px;
        font-family: Poppins-SemiBold, Poppins;
        font-weight: 600;
        letter-spacing: 0.2em;
      }

      .g, .h, .k {
        fill: #fc0;
      }

      .h {
        font-size: 12px;
        font-family: Poppins-Light, Poppins;
        font-weight: 300;
      }

      .j {
        stroke-dasharray: 3.96 5.94;
      }

      .l {
        stroke-dasharray: 4.18 6.26;
      }

      .m {
        stroke-dasharray: 3.99 5.98;
      }

      .n {
        stroke-dasharray: 4.1 6.15;
      }

      .o {
        stroke-dasharray: 4.01 6.01;
      }

      .p {
        stroke-dasharray: 4 5.99;
      }

      .q {
        stroke-dasharray: 3.99 5.98;
      }

      .r {
        stroke-dasharray: 4 5.99;
      }

      .s {
        stroke-dasharray: 4.3 6.45;
      }

      .t {
        stroke-dasharray: 4.06 6.08;
      }

      .u {
        stroke-dasharray: 4.01 6.01;
      }

      .v {
        stroke-dasharray: 4.13 6.2;
      }

      .w {
        stroke-dasharray: 3.91 5.87;
      }

      .x {
        stroke-dasharray: 3.93 5.9;
      }

      .y {
        stroke-dasharray: 4 6;
      }

      .z {
        stroke-dasharray: 4.04 6.07;
      }

      .aa {
        stroke-dasharray: 3.99 5.98;
      }

      .ab {
        stroke-dasharray: 3.9 5.85;
      }

      .ac {
        stroke-dasharray: 4.03 6.04;
      }

      .ad {
        stroke-dasharray: 3.99 5.99;
      }
    </style>
  </defs>
  <g>
    <circle class="a" cx="805.3" cy="676" r="10"/>
    <circle class="b" cx="805.8" cy="675.5" r="14.5"/>
    <g>
      <circle class="c" cx="935.3" cy="798" r="10"/>
      <circle class="d" cx="935.8" cy="797.5" r="14.5" transform="translate(-1.3 1593.5) rotate(-80.8)"/>
    </g>
    <g>
      <circle class="c" cx="1034.3" cy="580" r="10"/>
      <circle class="d" cx="1034.8" cy="579.5" r="14.5"/>
    </g>
    <g>
      <circle class="c" cx="1197.3" cy="506" r="10"/>
      <circle class="d" cx="1197.8" cy="505.5" r="14.5"/>
    </g>
    <g>
      <circle class="c" cx="1408.3" cy="574" r="10"/>
      <circle class="d" cx="1408.8" cy="573.5" r="14.5"/>
    </g>
    <g>
      <circle class="c" cx="1436.3" cy="677" r="10"/>
      <circle class="d" cx="1436.8" cy="676.5" r="14.5"/>
    </g>
    <g>
      <circle class="c" cx="1180.3" cy="852" r="10"/>
      <circle class="d" cx="1180.8" cy="851.5" r="14.5"/>
    </g>
    <g>
      <circle class="c" cx="1193.3" cy="780" r="10"/>
      <circle class="d" cx="1193.8" cy="779.5" r="14.5"/>
    </g>
    <g>
      <circle class="c" cx="1415.3" cy="932" r="10"/>
      <circle class="d" cx="1414.8" cy="931.5" r="14.5"/>
    </g>
    <g>
      <circle class="c" cx="911.3" cy="1026" r="10"/>
      <circle class="d" cx="911.8" cy="1026.5" r="14.5"/>
    </g>
    <g>
      <circle class="c" cx="786.3" cy="555" r="10"/>
      <circle class="d" cx="785.8" cy="555.5" r="14.5"/>
    </g>
    <g>
      <circle class="c" cx="668.3" cy="588" r="10"/>
      <circle class="d" cx="668.8" cy="588.5" r="14.5"/>
    </g>
    <g>
      <circle class="c" cx="357.3" cy="582" r="10"/>
      <circle class="d" cx="356.8" cy="581.5" r="14.5"/>
    </g>
    <g>
      <circle class="c" cx="50.3" cy="557" r="10"/>
      <circle class="d" cx="49.8" cy="557.5" r="14.5"/>
    </g>
    <g>
      <circle class="c" cx="423.3" cy="703" r="10"/>
      <circle class="e" cx="422.8" cy="703.5" r="14.5" transform="translate(-284 1120.7) rotate(-89.5)"/>
    </g>
    <g>
      <circle class="c" cx="503.3" cy="729" r="10"/>
      <circle class="d" cx="502.8" cy="729.5" r="14.5"/>
    </g>
    <g>
      <circle class="c" cx="265.3" cy="753" r="10"/>
      <circle class="d" cx="265.8" cy="753.5" r="14.5"/>
    </g>
    <g>
      <circle class="c" cx="168.3" cy="968" r="10"/>
      <circle class="d" cx="168.8" cy="967.5" r="14.5"/>
    </g>
    <polyline class="f" points="820.1 661.2 847.4 634 976.3 634"/>
    <text class="g" transform="translate(876.1 626.6)">CABO LEBO</text>
    <g>
      <circle class="c" cx="901.3" cy="892" r="10"/>
      <circle class="d" cx="900.8" cy="892.5" r="14.5"/>
    </g>
    <text class="h" transform="translate(867.9 651.8)">Point Break / HARD</text>
    <g>
      <g>
        <path class="i" d="M1419.3,899.1c-.1-.7-.1-1.3-.2-2"/>
        <path class="j" d="M1418.8,891.2a911.5,911.5,0,0,1,8.1-174.7"/>
        <path class="i" d="M1427.3,713.5l.3-1.9"/>
        <polygon class="k" points="1422.9 896.1 1419.3 897.9 1415.5 896.5 1419.6 905.1 1422.9 896.1"/>
      </g>
      <g>
        <path class="i" d="M1447.6,648.6a17.7,17.7,0,0,0,.4-2"/>
        <path class="l" d="M1448.7,640.4a95,95,0,0,0-13.5-57"/>
        <path class="i" d="M1433.6,580.7l-1.2-1.6"/>
        <polygon class="k" points="1451.8 646.5 1447.8 647.3 1444.5 645.1 1446.4 654.4 1451.8 646.5"/>
      </g>
      <g>
        <path class="i" d="M1380.1,563.7l-1.8-1"/>
        <path class="m" d="M1373.5,559.2c-10.8-8.8-18.3-22.4-27.5-33.4A98.8,98.8,0,0,0,1225.3,501"/>
        <path class="i" d="M1222.6,502.4l-1.7,1"/>
        <polygon class="k" points="1379.1 559.1 1379 563.1 1376 565.8 1385.5 566.1 1379.1 559.1"/>
      </g>
      <g>
        <path class="i" d="M1165.4,507.7l-1.8-.9"/>
        <path class="n" d="M1157.9,504.5c-17-5.9-37-3.4-51.6,7.4-9.2,6.9-16.1,16.5-22.8,26l-18,25.3"/>
        <path class="i" d="M1063.8,565.7l-1.2,1.6"/>
        <polygon class="k" points="1164.8 503.2 1164.3 507.2 1161.1 509.6 1170.5 510.8 1164.8 503.2"/>
      </g>
      <g>
        <path class="i" d="M1031.2,611.3c.1.7.1,1.4.2,2"/>
        <path class="o" d="M1032.1,619.3c4.2,34.7,15.4,67.7,40.4,92.5a168.7,168.7,0,0,0,101.6,48"/>
        <path class="i" d="M1177.1,760.1h2"/>
        <polygon class="k" points="1027.9 614.5 1031.4 612.6 1035.3 613.8 1030.7 605.4 1027.9 614.5"/>
      </g>
      <g>
        <path class="i" d="M1215.8,799.8l.8,1.8"/>
        <path class="p" d="M1218.1,807.4a34.2,34.2,0,0,1-.4,13.9,35.5,35.5,0,0,1-11.8,19.3"/>
        <path class="i" d="M1203.5,842.4l-1.7,1.1"/>
        <polygon class="k" points="1213.7 804 1216.3 800.9 1220.3 800.7 1213.1 794.5 1213.7 804"/>
      </g>
      <g>
        <path class="i" d="M1173.5,884.1a9.9,9.9,0,0,1-1.1,1.7"/>
        <path class="q" d="M1169.2,890.9c-24.2,37.5-52.1,73-87.5,100.1-37.8,28.8-85.2,47.4-132.5,43.8"/>
        <path class="i" d="M946.3,1034.6l-2-.2"/>
        <polygon class="k" points="1168.8 884.5 1172.8 885.1 1175.1 888.5 1176.7 879.1 1168.8 884.5"/>
      </g>
      <g>
        <path class="i" d="M885.8,1008.1l-1.6-1.1"/>
        <path class="r" d="M879.4,1003.4a72.4,72.4,0,0,1-10.1-10.6c-9.9-12.9-16.3-28.9-15.4-45.1.8-14.6,8-29,19.9-37.2"/>
        <path class="i" d="M876.3,908.9l1.8-.9"/>
        <polygon class="k" points="885.1 1003.4 884.8 1007.4 881.7 1010 891.1 1010.8 885.1 1003.4"/>
      </g>
      <g>
        <path class="i" d="M911.2,864l.3-2"/>
        <path class="s" d="M912.6,855.6a90.4,90.4,0,0,1,10.6-26.9"/>
        <path class="i" d="M924.9,826a9.9,9.9,0,0,1,1.1-1.7"/>
        <polygon class="k" points="915.2 861.5 911.4 862.8 907.9 860.8 910.7 869.9 915.2 861.5"/>
      </g>
      <g>
        <path class="i" d="M905.6,793.3l-2,.3"/>
        <path class="t" d="M897.6,794.3a82.8,82.8,0,0,1-60.4-19.1c-18.8-16-29.5-40.9-28.6-65.6"/>
        <path class="i" d="M808.8,706.6a13.6,13.6,0,0,1,.2-2"/>
        <polygon class="k" points="902 790.2 904.3 793.5 903.6 797.4 911.4 791.9 902 790.2"/>
      </g>
      <g>
        <path class="i" d="M802.5,647.7l-.3-2"/>
        <path class="u" d="M801.1,639.8c-2.7-15.4-5.5-30.9-8.2-46.3"/>
        <path class="i" d="M792.3,590.5l-.3-2"/>
        <polygon class="k" points="805.7 644.3 802.3 646.5 798.4 645.6 803.6 653.6 805.7 644.3"/>
      </g>
      <g>
        <path class="i" d="M762.4,542.6l-1.9-.4"/>
        <path class="v" d="M754.3,541.4c-22.9-2-46.8,6.2-63.4,22.2"/>
        <path class="i" d="M688.7,565.8l-1.4,1.5"/>
        <polygon class="k" points="760.5 538.4 761.2 542.4 758.9 545.6 768.2 544 760.5 538.4"/>
      </g>
      <g>
        <path class="i" d="M662.5,619.2a12.3,12.3,0,0,1-.2,2"/>
        <path class="w" d="M661.4,627c-5.5,28.3-22.9,55-44.3,74.1A127.4,127.4,0,0,1,530,733.2"/>
        <path class="i" d="M527.1,733.1h-2"/>
        <polygon class="k" points="658.6 621.7 662.4 620.5 665.9 622.4 663 613.3 658.6 621.7"/>
      </g>
      <g>
        <path class="i" d="M476.4,747.5l-1.9.6"/>
        <path class="x" d="M468.8,749.9a65,65,0,0,1-10.8,2.4c-8.3,1.1-17,.2-24.2-4.1a24.3,24.3,0,0,1-11.3-15.8"/>
        <path class="i" d="M422.2,729.5a12.7,12.7,0,0,1,.1-2"/>
        <polygon class="k" points="472.5 744.8 475.2 747.8 474.9 751.8 482 745.4 472.5 744.8"/>
      </g>
      <g>
        <path class="i" d="M398,684.4l-1.7-.9"/>
        <path class="y" d="M391.1,680.4A70.4,70.4,0,0,1,367.9,656a71.8,71.8,0,0,1-9.3-41.3"/>
        <path class="i" d="M358.8,611.8l.3-2"/>
        <polygon class="k" points="397.1 679.8 396.9 683.8 394 686.5 403.5 686.9 397.1 679.8"/>
      </g>
      <g>
        <path class="i" d="M330.8,564.4a18.5,18.5,0,0,1-1.4-1.4"/>
        <path class="z" d="M324.8,559A206.7,206.7,0,0,0,82.3,540.5"/>
        <path class="i" d="M79.8,542.1l-1.7,1.1"/>
        <polygon class="k" points="331.3 559.8 329.9 563.6 326.2 565.2 335.2 568.5 331.3 559.8"/>
      </g>
      <g>
        <path class="i" d="M69.6,579.3l1.8.9"/>
        <path class="aa" d="M76.7,582.9a462.6,462.6,0,0,1,167,149.2"/>
        <path class="i" d="M245.4,734.6a16.3,16.3,0,0,0,1.1,1.7"/>
        <polygon class="k" points="70.4 583.9 70.7 579.9 73.8 577.3 64.3 576.7 70.4 583.9"/>
      </g>
      <g>
        <path class="i" d="M263.4,786.2l-.3,2"/>
        <path class="ab" d="M262.1,794a340.4,340.4,0,0,1-71.2,155"/>
        <path class="i" d="M189,951.2a18.3,18.3,0,0,1-1.3,1.6"/>
        <polygon class="k" points="259.2 788.4 263.1 787.4 266.5 789.5 264.2 780.3 259.2 788.4"/>
      </g>
      <g>
        <path class="i" d="M133.8,976l-1.9.7"/>
        <path class="ac" d="M126.2,978.7A213.8,213.8,0,0,1,40,989.6"/>
        <path class="i" d="M36.9,989.4l-1.9-.2"/>
        <polygon class="k" points="129.8 973.4 132.6 976.3 132.4 980.3 139.3 973.7 129.8 973.4"/>
      </g>
      <g>
        <path class="i" d="M1568.3,958.9l-1.9.6"/>
        <path class="ad" d="M1560.6,961a171.1,171.1,0,0,1-114-11.5"/>
        <path class="i" d="M1444,948.2l-1.8-.9"/>
        <polygon class="k" points="1564.5 956.2 1567.1 959.3 1566.7 963.3 1574 957.1 1564.5 956.2"/>
      </g>
    </g>
  </g>
</svg>
